<svg xmlns="http://www.w3.org/2000/svg" viewBox="0 0 178.78 178.36">
  <path d="M199.02 364.45v174.76M255.51 362.93v174.76M137.89 418.96h174.76M138.9 479.5h174.76" style="fill:none;stroke:#000;stroke-width:2" transform="translate(-136.89 -361.85)"/>
  <path d="M266.05 362.85c17.317 13.619 31.373 30.861 48.62 44.548-5.67 5.247-10.334-5.754-15.167-8.232-11.955-11.701-23.414-24.064-36.804-34.17z" style="color:#000;fill:#000;stroke:#000;stroke-width:2" transform="matrix(.94824 0 0 1 -125.149 -357.557)"/>
  <path d="M305.31 367.12c-9.213 6.087-16.95 14.285-24.043 22.682-4.297 4.004-3.932 12.117-10.264 13.645 3.626-8.75 9.233-16.467 16.395-22.675 5.346-5.18 10.588-11.359 17.913-13.652z" style="color:#000;fill:#000;stroke:#000;stroke-width:2" transform="matrix(.94824 0 0 1 -125.149 -357.557)"/>
  <path d="M172.42 375.468c-2.674-.496-11.991 2.165-10.445 1.917 2.491-1.969-6.223 6.582-4.536 10.505-1.184 10.746 10.21 16.955 19.349 18.04 2.32.21 8.592-2.755 3.25-.156 5.74-7.253 4.226-19.119-1.88-25.894-3.84-2.374-11.256-7.7-3.259-6.888 9.01 4.156 14.036 14.755 11.64 24.365-.306 10.69-15.1 13.553-22.469 7.754-9.568-3.153-13.04-15.405-7.693-23.579 3.386-6.03 15.195-9.152 18.453-7.815l-2.41 1.752z" style="color:#000;fill:#000;stroke:#000;stroke-width:2" transform="translate(-136.89 -361.85)"/>
  <path d="M214.32 422.48c10.124 10.79 19.187 22.651 30.48 32.265 4.685 4.353-3.88 7.255-4.215 1.162-10.92-9.415-19.535-21.124-29.67-31.341l3.405-2.086z" style="color:#000;fill:#000;stroke:#000;stroke-width:2" transform="translate(-135.88 -353.516)"/>
  <path d="M240.78 425.69c-8.027 7.555-17.969 13.122-24.691 21.964-.37 4.006-9.616 9.66-4.32 2.795 5.903-9.556 16.437-14.734 24.329-22.444 1.208-1.319 3.13-1.548 4.682-2.316z" style="color:#000;fill:#000;stroke:#000;stroke-width:2" transform="translate(-135.88 -353.516)"/>
  <path d="M173.33 491.707c-3.31.66-8.07 2.82-6.93 2.393-3.168 1.87-3.146 1.642-1.706 1.266-8.836 5.003-13.904 21.166-4.883 27.966 5.15 5.108 20.556 4.59 20.602 3.424-2.751 1.744 5.134-5.614 3.993-9.078 2.337-9.692-6.492-17.444-13.334-22.61-9.384-.717 5.79-5.753 7.18.825 7.58 6.098 13.282 16.12 8.132 25.646-4.712 8.095-15.874 11.053-24.082 6.584-12.446-2.016-12.754-17.107-7.067-25.792 3.795-6.164 17.772-13.094 20.072-12.11l-1.977 1.486z" style="color:#000;fill:#000;stroke:#000;stroke-width:2" transform="translate(-136.89 -361.85)"/>
  <path d="M156.82 423.18c13.997 8.027 24.126 20.941 35.501 32.067-5.002 5.145-8.148-4.54-12.174-7.038-7.89-8.605-16.21-17.311-26.646-22.805l3.319-2.224z" style="color:#000;fill:#000;stroke:#000;stroke-width:2" transform="translate(-138.405 -354.526)"/>
  <path d="M189.24 422.86c-7.959 10.161-16.78 19.562-26.069 28.517-1.282 3.535-13.126 11.787-6.17 4.378 9.317-10.012 19.514-19.264 27.705-30.302.935-1.594 3.033-1.745 4.535-2.593z" style="color:#000;fill:#000;stroke:#000;stroke-width:2" transform="translate(-138.405 -354.526)"/>
  <path d="M282.69 432.844c-2.98 1.738-4.474 2.417-3.46 1.948-1.747 1.122-8.254 4.488-3.037 1.735-10.123 6.325-6.903 19.308 3.27 23.417 6.533 2.839 14.598 3.442 20.913-.451-6.642 4.95 5.661-5.535 1.378-9.808-3.472-8.887-13.8-12.392-22.61-12.924-8.568-.74 6.026-4.291 8.998-1.415 8.558 1.39 19.664 8.497 17.132 18.584-3.18 8.305-14.185 11.986-22.422 10.097-8.893-.838-21.053-10.628-15.125-20.264 1.268-3.845 9.308-9.034 10.137-8.895-3.718 2.427 15.162-9.406 4.826-2.025z" style="color:#000;fill:#000;stroke:#000;stroke-width:2" transform="translate(-136.89 -361.85)"/>
</svg>